<mxfile host="app.diagrams.net" modified="2023-01-15T14:44:13.937Z" agent="5.0 (Windows NT 10.0; Win64; x64) AppleWebKit/537.36 (KHTML, like Gecko) Chrome/109.0.0.0 Safari/537.36" etag="GQhxo8vI7flpMV8EUNZ9" version="20.4.2" type="github">
  <diagram id="sflRK_goTTk4NQ543zxu" name="第 1 页">
    <mxGraphModel dx="1038" dy="547" grid="1" gridSize="10" guides="1" tooltips="1" connect="1" arrows="1" fold="1" page="1" pageScale="1" pageWidth="827" pageHeight="1169" math="0" shadow="0">
      <root>
        <mxCell id="0" />
        <mxCell id="1" parent="0" />
        <mxCell id="dD8fmWtIW3LLYJ_Cl13p-9" style="edgeStyle=orthogonalEdgeStyle;rounded=0;orthogonalLoop=1;jettySize=auto;html=1;fontSize=18;" edge="1" parent="1" source="dD8fmWtIW3LLYJ_Cl13p-3" target="dD8fmWtIW3LLYJ_Cl13p-4">
          <mxGeometry relative="1" as="geometry" />
        </mxCell>
        <mxCell id="dD8fmWtIW3LLYJ_Cl13p-3" value="" style="fontColor=#0066CC;verticalAlign=top;verticalLabelPosition=bottom;labelPosition=center;align=center;html=1;outlineConnect=0;fillColor=#CCCCCC;strokeColor=#6881B3;gradientColor=none;gradientDirection=north;strokeWidth=2;shape=mxgraph.networks.pc;" vertex="1" parent="1">
          <mxGeometry x="140" y="350" width="330" height="270" as="geometry" />
        </mxCell>
        <mxCell id="dD8fmWtIW3LLYJ_Cl13p-10" style="edgeStyle=orthogonalEdgeStyle;rounded=0;orthogonalLoop=1;jettySize=auto;html=1;entryX=1;entryY=0.5;entryDx=0;entryDy=0;entryPerimeter=0;fontSize=18;" edge="1" parent="1" source="dD8fmWtIW3LLYJ_Cl13p-4" target="dD8fmWtIW3LLYJ_Cl13p-3">
          <mxGeometry relative="1" as="geometry" />
        </mxCell>
        <mxCell id="dD8fmWtIW3LLYJ_Cl13p-4" value="" style="fontColor=#0066CC;verticalAlign=top;verticalLabelPosition=bottom;labelPosition=center;align=center;html=1;outlineConnect=0;fillColor=#CCCCCC;strokeColor=#6881B3;gradientColor=none;gradientDirection=north;strokeWidth=2;shape=mxgraph.networks.pc;" vertex="1" parent="1">
          <mxGeometry x="680" y="350" width="330" height="270" as="geometry" />
        </mxCell>
        <mxCell id="dD8fmWtIW3LLYJ_Cl13p-5" value="&lt;font style=&quot;font-size: 18px;&quot;&gt;养眼图片.jpg&lt;/font&gt;" style="rounded=1;whiteSpace=wrap;html=1;strokeWidth=2;fillWeight=4;hachureGap=8;hachureAngle=45;sketch=1;fillColor=#d5e8d4;strokeColor=#82b366;" vertex="1" parent="1">
          <mxGeometry x="264" y="390" width="150" height="40" as="geometry" />
        </mxCell>
        <mxCell id="dD8fmWtIW3LLYJ_Cl13p-6" value="&lt;font style=&quot;font-size: 18px;&quot;&gt;千羽.mp3&lt;/font&gt;" style="rounded=1;whiteSpace=wrap;html=1;strokeWidth=2;fillWeight=4;hachureGap=8;hachureAngle=45;fillColor=#cce5ff;sketch=1;strokeColor=#36393d;" vertex="1" parent="1">
          <mxGeometry x="264" y="440" width="150" height="40" as="geometry" />
        </mxCell>
        <mxCell id="dD8fmWtIW3LLYJ_Cl13p-7" value="&lt;font style=&quot;font-size: 18px;&quot;&gt;学习资料.avi&lt;/font&gt;" style="rounded=1;whiteSpace=wrap;html=1;strokeWidth=2;fillWeight=4;hachureGap=8;hachureAngle=45;fillColor=#f5f5f5;sketch=1;strokeColor=#666666;fontColor=#333333;" vertex="1" parent="1">
          <mxGeometry x="264" y="490" width="150" height="40" as="geometry" />
        </mxCell>
        <mxCell id="dD8fmWtIW3LLYJ_Cl13p-11" value="0101001001" style="text;strokeColor=none;fillColor=none;html=1;fontSize=24;fontStyle=1;verticalAlign=middle;align=center;" vertex="1" parent="1">
          <mxGeometry x="530" y="430" width="100" height="40" as="geometry" />
        </mxCell>
        <mxCell id="dD8fmWtIW3LLYJ_Cl13p-12" value="Text" style="text;html=1;strokeColor=none;fillColor=none;align=center;verticalAlign=middle;whiteSpace=wrap;rounded=0;fontSize=18;" vertex="1" parent="1">
          <mxGeometry x="840" y="410" width="60" height="30" as="geometry" />
        </mxCell>
        <mxCell id="dD8fmWtIW3LLYJ_Cl13p-13" value="点击跳转" style="text;html=1;strokeColor=#36393d;fillColor=#cce5ff;align=center;verticalAlign=middle;whiteSpace=wrap;rounded=0;fontSize=18;" vertex="1" parent="1">
          <mxGeometry x="827" y="470" width="100" height="30" as="geometry" />
        </mxCell>
      </root>
    </mxGraphModel>
  </diagram>
</mxfile>
